<svg width="324.7" height="80.601" viewBox="0 0 324.7 80.601" xmlns="http://www.w3.org/2000/svg"><g id="svgGroup" stroke-linecap="round" fill-rule="evenodd" font-size="9pt" stroke="#f95959" stroke-width="0.25mm" fill="#f95959" style="stroke:#f95959;stroke-width:0.25mm;fill:#f95959"><path d="M 14.857 80.122 A 23.135 23.135 0 0 0 19.7 80.6 Q 26.4 80.6 32.2 77.35 A 36.368 36.368 0 0 0 35.118 75.528 A 40.314 40.314 0 0 0 42.7 68.65 A 59.389 59.389 0 0 0 46.3 64.031 A 21.093 21.093 0 0 0 46.2 66 A 13.884 13.884 0 0 0 46.403 68.424 A 10.256 10.256 0 0 0 48 72.45 A 5.429 5.429 0 0 0 49.564 73.979 Q 51.303 75.1 54.1 75.1 A 9.929 9.929 0 0 0 55.651 74.977 Q 57.352 74.708 59.103 73.854 A 18.281 18.281 0 0 0 61.95 72.1 Q 66 69.1 69.4 64.6 Q 70.5 65.1 71.7 65.35 A 11.377 11.377 0 0 0 71.851 65.381 A 12.295 12.295 0 0 0 74.2 65.6 Q 77.5 65.6 81.15 63.65 A 11.378 11.378 0 0 0 83.028 62.372 A 21.093 21.093 0 0 0 82.7 66 A 13.884 13.884 0 0 0 82.903 68.424 A 10.256 10.256 0 0 0 84.5 72.45 A 5.429 5.429 0 0 0 86.064 73.979 Q 87.803 75.1 90.6 75.1 A 9.929 9.929 0 0 0 92.151 74.977 Q 93.852 74.708 95.603 73.854 A 18.281 18.281 0 0 0 98.45 72.1 Q 102.5 69.1 105.9 64.6 Q 107 65.1 108.2 65.35 A 11.377 11.377 0 0 0 108.351 65.381 A 12.295 12.295 0 0 0 110.7 65.6 Q 114 65.6 117.65 63.65 A 11.378 11.378 0 0 0 120.891 61.018 A 38.862 38.862 0 0 0 120.6 65.6 A 69.681 69.681 0 0 0 120.603 66.173 A 63.192 63.192 0 0 0 120.75 70.05 Q 120.9 72.2 121.65 73.6 A 3.315 3.315 0 0 0 121.682 73.658 Q 122.183 74.551 123.087 74.85 A 3.213 3.213 0 0 0 124.1 75 A 4.315 4.315 0 0 0 124.84 74.937 A 4.601 4.601 0 0 0 126.4 74.35 Q 127.165 73.898 127.688 72.89 A 6.857 6.857 0 0 0 128.1 71.9 A 755.136 755.136 0 0 0 128.181 71.668 Q 128.96 69.426 130.1 66.1 A 86.823 86.823 0 0 1 131.114 63.305 A 107.147 107.147 0 0 1 133 58.7 Q 134.7 54.8 136.85 51.35 A 25.549 25.549 0 0 1 138.614 48.853 A 19.788 19.788 0 0 1 141.7 45.75 A 11.463 11.463 0 0 1 142.64 45.075 A 8.836 8.836 0 0 1 147.5 43.6 Q 149.5 43.6 151 44.8 A 3.819 3.819 0 0 1 152.276 46.611 A 4.716 4.716 0 0 1 152.5 48.1 Q 152.5 50.6 150.95 52.45 Q 149.4 54.3 147.2 55.45 Q 145 56.6 142.9 57.15 Q 140.8 57.7 139.7 57.7 Q 139.7 59.066 139.894 60.696 A 39.77 39.77 0 0 0 140.25 63.05 Q 140.8 66.1 141.95 69 A 15.513 15.513 0 0 0 142.664 70.552 A 12.541 12.541 0 0 0 145.1 73.8 Q 147.1 75.7 149.9 75.7 Q 152.115 75.7 154.35 74.599 A 15.336 15.336 0 0 0 156.95 72.95 A 26.302 26.302 0 0 0 160.034 70.13 A 33.076 33.076 0 0 0 163.4 65.85 A 32.876 32.876 0 0 0 163.834 65.187 A 36.559 36.559 0 0 0 163.8 66.6 Q 163.8 72.4 166.35 75.8 A 8.137 8.137 0 0 0 171.041 78.851 A 12.591 12.591 0 0 0 174.1 79.2 Q 179.4 79.2 183.35 75.95 Q 187.3 72.7 190 68.1 L 191.6 68.3 Q 192.4 68.4 193.2 68.4 A 13.527 13.527 0 0 0 197.252 67.765 A 17.462 17.462 0 0 0 200.85 66.15 A 9.015 9.015 0 0 0 201.297 65.871 A 11.796 11.796 0 0 0 203.288 64.153 A 21.093 21.093 0 0 0 203.2 66 A 13.884 13.884 0 0 0 203.403 68.424 A 10.256 10.256 0 0 0 205 72.45 A 5.429 5.429 0 0 0 206.564 73.979 Q 208.303 75.1 211.1 75.1 A 9.929 9.929 0 0 0 212.651 74.977 Q 214.352 74.708 216.103 73.854 A 18.281 18.281 0 0 0 218.95 72.1 Q 223 69.1 226.4 64.6 Q 227.5 65.1 228.7 65.35 A 11.377 11.377 0 0 0 228.851 65.381 A 12.295 12.295 0 0 0 231.2 65.6 Q 234.5 65.6 238.15 63.65 A 11.378 11.378 0 0 0 240.028 62.372 A 21.093 21.093 0 0 0 239.7 66 A 13.884 13.884 0 0 0 239.903 68.424 A 10.256 10.256 0 0 0 241.5 72.45 A 5.429 5.429 0 0 0 243.064 73.979 Q 244.803 75.1 247.6 75.1 A 9.929 9.929 0 0 0 249.151 74.977 Q 250.852 74.708 252.603 73.854 A 18.281 18.281 0 0 0 255.45 72.1 Q 259.5 69.1 262.9 64.6 Q 264 65.1 265.2 65.35 A 11.377 11.377 0 0 0 265.351 65.381 A 12.295 12.295 0 0 0 267.7 65.6 Q 271 65.6 274.65 63.65 A 11.378 11.378 0 0 0 277.891 61.018 A 38.862 38.862 0 0 0 277.6 65.6 A 69.681 69.681 0 0 0 277.603 66.173 A 63.192 63.192 0 0 0 277.75 70.05 Q 277.9 72.2 278.65 73.6 A 3.315 3.315 0 0 0 278.682 73.658 Q 279.183 74.551 280.087 74.85 A 3.213 3.213 0 0 0 281.1 75 A 4.315 4.315 0 0 0 281.84 74.937 A 4.601 4.601 0 0 0 283.4 74.35 Q 284.165 73.898 284.688 72.89 A 6.857 6.857 0 0 0 285.1 71.9 A 755.136 755.136 0 0 0 285.181 71.668 Q 285.96 69.426 287.1 66.1 A 86.823 86.823 0 0 1 288.114 63.305 A 107.147 107.147 0 0 1 290 58.7 Q 291.7 54.8 293.85 51.35 A 25.549 25.549 0 0 1 295.614 48.853 A 19.788 19.788 0 0 1 298.7 45.75 A 11.463 11.463 0 0 1 299.64 45.075 A 8.836 8.836 0 0 1 304.5 43.6 Q 306.5 43.6 308 44.8 A 3.819 3.819 0 0 1 309.276 46.611 A 4.716 4.716 0 0 1 309.5 48.1 Q 309.5 50.6 307.95 52.45 Q 306.4 54.3 304.2 55.45 Q 302 56.6 299.9 57.15 Q 297.8 57.7 296.7 57.7 Q 296.7 59.066 296.894 60.696 A 39.77 39.77 0 0 0 297.25 63.05 Q 297.8 66.1 298.95 69 A 15.513 15.513 0 0 0 299.664 70.552 A 12.541 12.541 0 0 0 302.1 73.8 Q 304.1 75.7 306.9 75.7 Q 309.115 75.7 311.35 74.599 A 15.336 15.336 0 0 0 313.95 72.95 A 26.302 26.302 0 0 0 317.034 70.13 A 33.076 33.076 0 0 0 320.4 65.85 Q 323.3 61.5 324.7 56.6 L 323.7 55.6 A 66.128 66.128 0 0 1 322.118 58.983 A 53.189 53.189 0 0 1 319.35 63.85 Q 318.139 65.732 316.86 67.229 A 21.611 21.611 0 0 1 314.4 69.7 A 10.765 10.765 0 0 1 312.914 70.764 A 7.8 7.8 0 0 1 308.9 71.9 A 4.146 4.146 0 0 1 306.737 71.319 A 4.959 4.959 0 0 1 305.5 70.25 A 13.167 13.167 0 0 1 304.361 68.682 A 16.237 16.237 0 0 1 303.15 66.3 A 33.617 33.617 0 0 1 302.495 64.586 A 27.137 27.137 0 0 1 301.7 61.9 A 89.051 89.051 0 0 1 301.535 61.195 Q 301.182 59.658 301.1 59 Q 302.6 59 304.95 58.35 A 18.359 18.359 0 0 0 306.492 57.848 A 21.422 21.422 0 0 0 309.65 56.35 Q 312 55 313.65 52.75 A 8.221 8.221 0 0 0 314.961 50.005 A 10.347 10.347 0 0 0 315.3 47.3 A 10.458 10.458 0 0 0 315.3 47.185 A 8.568 8.568 0 0 0 312.7 41 A 10.267 10.267 0 0 0 312.619 40.92 A 8.571 8.571 0 0 0 306.4 38.4 Q 302.7 38.4 299.3 41.2 Q 295.9 44 293 48.4 Q 290.1 52.8 287.85 57.6 Q 285.6 62.4 284 66.4 A 40.246 40.246 0 0 1 284.146 63.091 Q 284.322 60.963 284.711 58.52 A 92.741 92.741 0 0 1 285.65 53.55 Q 287.3 45.9 290.6 37.8 Q 295 35.1 298.75 31.3 Q 302.5 27.5 305.25 23.2 A 47.444 47.444 0 0 0 306.92 20.384 A 39.161 39.161 0 0 0 309.5 14.65 Q 311 10.4 311 7 A 16.443 16.443 0 0 0 310.993 6.493 Q 310.919 4.119 310.15 2.4 A 5.662 5.662 0 0 0 309.856 1.827 Q 309.07 0.5 307.9 0.5 A 2.053 2.053 0 0 0 307.734 0.507 Q 305.968 0.651 303.2 3.8 A 40.92 40.92 0 0 0 301.535 5.831 Q 300.44 7.252 299.279 8.972 A 92.724 92.724 0 0 0 296.9 12.7 Q 293.5 18.3 290.1 25.2 Q 286.7 32.1 283.85 39.45 A 133.177 133.177 0 0 0 281.874 44.885 A 111.61 111.61 0 0 0 279.3 53.6 A 73.103 73.103 0 0 0 278.827 55.61 A 57.124 57.124 0 0 0 278.495 57.208 A 13.687 13.687 0 0 1 278.164 57.763 A 10.529 10.529 0 0 1 275.95 60.3 A 14.477 14.477 0 0 1 274.296 61.481 A 10.905 10.905 0 0 1 272 62.55 A 16.91 16.91 0 0 1 271.468 62.714 Q 270.682 62.941 269.96 63.062 A 9.435 9.435 0 0 1 268.4 63.2 Q 266.4 63.2 264.6 62.2 Q 267.5 57.8 269.4 53.05 A 34.344 34.344 0 0 0 269.816 51.958 Q 270.513 50.027 270.883 48.243 A 18.954 18.954 0 0 0 271.3 44.4 A 15.237 15.237 0 0 0 271.298 44.127 Q 271.274 42.813 271.023 41.679 A 8.597 8.597 0 0 0 269.9 38.9 Q 268.85 37.25 266.281 36.838 A 11.903 11.903 0 0 0 264.4 36.7 A 10.336 10.336 0 0 0 263.523 36.737 A 8.031 8.031 0 0 0 259.1 38.45 A 10.183 10.183 0 0 0 257.374 40.204 A 11.86 11.86 0 0 0 255.75 43.1 Q 254.6 46 254.6 49.3 Q 254.6 53.2 256.15 56.95 A 17.942 17.942 0 0 0 256.945 58.628 A 14.503 14.503 0 0 0 260.5 63 A 40.525 40.525 0 0 1 257.853 66.007 A 29.963 29.963 0 0 1 254.8 68.75 A 19.47 19.47 0 0 1 254.299 69.126 Q 251.717 71 249.8 71 Q 248.2 71 247.2 69.65 A 3.449 3.449 0 0 1 246.967 69.289 Q 246.2 67.927 246.2 65.3 A 11.477 11.477 0 0 1 246.259 64.172 Q 246.335 63.407 246.508 62.538 A 25.492 25.492 0 0 1 246.95 60.7 A 48.638 48.638 0 0 1 246.997 60.532 A 52.685 52.685 0 0 1 248.8 55.25 A 43.267 43.267 0 0 1 249.801 52.939 A 33.287 33.287 0 0 1 251.15 50.35 A 28.267 28.267 0 0 1 251.595 49.611 Q 252.564 48.054 253.3 47.4 A 8.973 8.973 0 0 0 253.238 47.375 A 9.742 9.742 0 0 0 252.25 47.05 A 4.572 4.572 0 0 0 251.878 46.965 A 3.729 3.729 0 0 0 251.2 46.9 A 4.926 4.926 0 0 0 250.384 46.969 Q 249.419 47.13 248.466 47.675 A 8.699 8.699 0 0 0 247.05 48.7 A 15.684 15.684 0 0 0 244.985 50.923 A 21.34 21.34 0 0 0 243.35 53.4 A 30.204 30.204 0 0 0 240.971 58.746 A 10.529 10.529 0 0 1 239.45 60.3 A 14.477 14.477 0 0 1 237.796 61.481 A 10.905 10.905 0 0 1 235.5 62.55 A 16.91 16.91 0 0 1 234.968 62.714 Q 234.182 62.941 233.46 63.062 A 9.435 9.435 0 0 1 231.9 63.2 Q 229.9 63.2 228.1 62.2 Q 231 57.8 232.9 53.05 A 34.344 34.344 0 0 0 233.316 51.958 Q 234.013 50.027 234.383 48.243 A 18.954 18.954 0 0 0 234.8 44.4 A 15.237 15.237 0 0 0 234.798 44.127 Q 234.774 42.813 234.523 41.679 A 8.597 8.597 0 0 0 233.4 38.9 Q 232.35 37.25 229.781 36.838 A 11.903 11.903 0 0 0 227.9 36.7 A 10.336 10.336 0 0 0 227.023 36.737 A 8.031 8.031 0 0 0 222.6 38.45 A 10.183 10.183 0 0 0 220.874 40.204 A 11.86 11.86 0 0 0 219.25 43.1 Q 218.1 46 218.1 49.3 Q 218.1 53.2 219.65 56.95 A 17.942 17.942 0 0 0 220.445 58.628 A 14.503 14.503 0 0 0 224 63 A 40.525 40.525 0 0 1 221.353 66.007 A 29.963 29.963 0 0 1 218.3 68.75 A 19.47 19.47 0 0 1 217.799 69.126 Q 215.217 71 213.3 71 Q 211.7 71 210.7 69.65 A 3.449 3.449 0 0 1 210.467 69.289 Q 209.7 67.927 209.7 65.3 A 11.477 11.477 0 0 1 209.759 64.172 Q 209.835 63.407 210.008 62.538 A 25.492 25.492 0 0 1 210.45 60.7 A 48.638 48.638 0 0 1 210.497 60.532 A 52.685 52.685 0 0 1 212.3 55.25 A 43.267 43.267 0 0 1 213.301 52.939 A 33.287 33.287 0 0 1 214.65 50.35 A 28.267 28.267 0 0 1 215.095 49.611 Q 216.064 48.054 216.8 47.4 A 8.973 8.973 0 0 0 216.738 47.375 A 9.742 9.742 0 0 0 215.75 47.05 A 4.572 4.572 0 0 0 215.378 46.965 A 3.729 3.729 0 0 0 214.7 46.9 A 4.926 4.926 0 0 0 213.884 46.969 Q 212.919 47.13 211.966 47.675 A 8.699 8.699 0 0 0 210.55 48.7 A 15.684 15.684 0 0 0 208.485 50.923 A 21.34 21.34 0 0 0 206.85 53.4 A 30.204 30.204 0 0 0 204.248 59.444 A 49.834 49.834 0 0 1 203.55 60.55 Q 201.9 63.1 199.5 64.85 A 8.819 8.819 0 0 1 196.227 66.311 A 12.232 12.232 0 0 1 193.5 66.6 A 9.718 9.718 0 0 1 193.391 66.6 A 8.804 8.804 0 0 1 192.15 66.5 Q 191.5 66.4 190.9 66.3 Q 192.6 63 193.5 59.5 A 30.625 30.625 0 0 0 193.851 57.979 A 26.442 26.442 0 0 0 194.4 52.7 A 19.55 19.55 0 0 0 194.274 50.407 Q 193.937 47.56 192.7 45.85 A 6.992 6.992 0 0 0 192.566 45.671 Q 191.665 44.506 190.445 43.966 A 5.734 5.734 0 0 0 188.1 43.5 A 7.095 7.095 0 0 0 184.246 44.605 A 9.156 9.156 0 0 0 182.2 46.4 Q 180.618 48.235 180.037 50.831 A 14.962 14.962 0 0 0 179.7 54.1 A 15.324 15.324 0 0 0 179.964 56.926 A 17.493 17.493 0 0 0 181.5 61.45 Q 183.3 65.1 187 67 Q 185.1 70.7 182 73.05 Q 178.9 75.4 176 75.4 A 6.076 6.076 0 0 1 175.24 75.354 Q 172.836 75.051 171.75 72.75 A 10.885 10.885 0 0 1 171.217 71.378 Q 170.84 70.184 170.662 68.76 A 22.2 22.2 0 0 1 170.5 66 A 37.907 37.907 0 0 1 170.546 64.151 A 42.486 42.486 0 0 1 171.45 57.35 A 101.404 101.404 0 0 1 171.512 57.065 Q 171.974 54.929 172.483 53.027 A 62.139 62.139 0 0 1 173.55 49.45 Q 174.431 46.809 174.989 45.545 A 8.786 8.786 0 0 1 175.3 44.9 A 27.059 27.059 0 0 0 178.789 42.39 A 36.304 36.304 0 0 0 182.15 39.15 A 58.951 58.951 0 0 0 182.774 38.459 A 64.324 64.324 0 0 0 188.4 31.1 Q 191.3 26.7 193.5 22.15 A 67.809 67.809 0 0 0 195.343 18.006 A 50.915 50.915 0 0 0 196.9 13.6 A 37.323 37.323 0 0 0 197.467 11.503 Q 198.1 8.835 198.1 6.8 A 11.77 11.77 0 0 0 198.089 6.275 A 12.547 12.547 0 0 0 197.35 2.6 Q 197.116 1.944 196.789 1.493 A 2.228 2.228 0 0 0 194.9 0.5 Q 193.338 0.5 191.104 2.606 A 22.699 22.699 0 0 0 189.8 3.95 A 40.699 40.699 0 0 0 188.2 5.851 Q 185.812 8.86 183.2 13.15 Q 179.7 18.9 176.25 26 Q 172.8 33.1 170 40.55 A 147.366 147.366 0 0 0 168.055 46.046 A 121.801 121.801 0 0 0 165.5 54.8 A 73.004 73.004 0 0 0 164.827 57.739 A 54.652 54.652 0 0 0 164.322 60.509 A 53.189 53.189 0 0 1 162.35 63.85 Q 161.139 65.732 159.86 67.229 A 21.611 21.611 0 0 1 157.4 69.7 A 10.765 10.765 0 0 1 155.914 70.764 A 7.8 7.8 0 0 1 151.9 71.9 A 4.146 4.146 0 0 1 149.737 71.319 A 4.959 4.959 0 0 1 148.5 70.25 A 13.167 13.167 0 0 1 147.361 68.682 A 16.237 16.237 0 0 1 146.15 66.3 A 33.617 33.617 0 0 1 145.495 64.586 A 27.137 27.137 0 0 1 144.7 61.9 A 89.051 89.051 0 0 1 144.535 61.195 Q 144.182 59.658 144.1 59 Q 145.6 59 147.95 58.35 A 18.359 18.359 0 0 0 149.492 57.848 A 21.422 21.422 0 0 0 152.65 56.35 Q 155 55 156.65 52.75 A 8.221 8.221 0 0 0 157.961 50.005 A 10.347 10.347 0 0 0 158.3 47.3 A 10.458 10.458 0 0 0 158.3 47.185 A 8.568 8.568 0 0 0 155.7 41 A 10.267 10.267 0 0 0 155.619 40.92 A 8.571 8.571 0 0 0 149.4 38.4 Q 145.7 38.4 142.3 41.2 Q 138.9 44 136 48.4 Q 133.1 52.8 130.85 57.6 Q 128.6 62.4 127 66.4 A 40.246 40.246 0 0 1 127.146 63.091 Q 127.322 60.963 127.711 58.52 A 92.741 92.741 0 0 1 128.65 53.55 Q 130.3 45.9 133.6 37.8 Q 138 35.1 141.75 31.3 Q 145.5 27.5 148.25 23.2 A 47.444 47.444 0 0 0 149.92 20.384 A 39.161 39.161 0 0 0 152.5 14.65 Q 154 10.4 154 7 A 16.443 16.443 0 0 0 153.993 6.493 Q 153.919 4.119 153.15 2.4 A 5.662 5.662 0 0 0 152.856 1.827 Q 152.07 0.5 150.9 0.5 A 2.053 2.053 0 0 0 150.734 0.507 Q 148.968 0.651 146.2 3.8 A 40.92 40.92 0 0 0 144.535 5.831 Q 143.44 7.252 142.279 8.972 A 92.724 92.724 0 0 0 139.9 12.7 Q 136.5 18.3 133.1 25.2 Q 129.7 32.1 126.85 39.45 A 133.177 133.177 0 0 0 124.874 44.885 A 111.61 111.61 0 0 0 122.3 53.6 A 73.103 73.103 0 0 0 121.827 55.61 A 57.124 57.124 0 0 0 121.495 57.208 A 13.687 13.687 0 0 1 121.164 57.763 A 10.529 10.529 0 0 1 118.95 60.3 A 14.477 14.477 0 0 1 117.296 61.481 A 10.905 10.905 0 0 1 115 62.55 A 16.91 16.91 0 0 1 114.468 62.714 Q 113.682 62.941 112.96 63.062 A 9.435 9.435 0 0 1 111.4 63.2 Q 109.4 63.2 107.6 62.2 Q 110.5 57.8 112.4 53.05 A 34.344 34.344 0 0 0 112.816 51.958 Q 113.513 50.027 113.883 48.243 A 18.954 18.954 0 0 0 114.3 44.4 A 15.237 15.237 0 0 0 114.298 44.127 Q 114.274 42.813 114.023 41.679 A 8.597 8.597 0 0 0 112.9 38.9 Q 111.85 37.25 109.281 36.838 A 11.903 11.903 0 0 0 107.4 36.7 A 10.336 10.336 0 0 0 106.523 36.737 A 8.031 8.031 0 0 0 102.1 38.45 A 10.183 10.183 0 0 0 100.374 40.204 A 11.86 11.86 0 0 0 98.75 43.1 Q 97.6 46 97.6 49.3 Q 97.6 53.2 99.15 56.95 A 17.942 17.942 0 0 0 99.945 58.628 A 14.503 14.503 0 0 0 103.5 63 A 40.525 40.525 0 0 1 100.853 66.007 A 29.963 29.963 0 0 1 97.8 68.75 A 19.47 19.47 0 0 1 97.299 69.126 Q 94.717 71 92.8 71 Q 91.2 71 90.2 69.65 A 3.449 3.449 0 0 1 89.967 69.289 Q 89.2 67.927 89.2 65.3 A 11.477 11.477 0 0 1 89.259 64.172 Q 89.335 63.407 89.508 62.538 A 25.492 25.492 0 0 1 89.95 60.7 A 48.638 48.638 0 0 1 89.997 60.532 A 52.685 52.685 0 0 1 91.8 55.25 A 43.267 43.267 0 0 1 92.801 52.939 A 33.287 33.287 0 0 1 94.15 50.35 A 28.267 28.267 0 0 1 94.595 49.611 Q 95.564 48.054 96.3 47.4 A 8.973 8.973 0 0 0 96.238 47.375 A 9.742 9.742 0 0 0 95.25 47.05 A 4.572 4.572 0 0 0 94.878 46.965 A 3.729 3.729 0 0 0 94.2 46.9 A 4.926 4.926 0 0 0 93.384 46.969 Q 92.419 47.13 91.466 47.675 A 8.699 8.699 0 0 0 90.05 48.7 A 15.684 15.684 0 0 0 87.985 50.923 A 21.34 21.34 0 0 0 86.35 53.4 A 30.204 30.204 0 0 0 83.971 58.746 A 10.529 10.529 0 0 1 82.45 60.3 A 14.477 14.477 0 0 1 80.796 61.481 A 10.905 10.905 0 0 1 78.5 62.55 A 16.91 16.91 0 0 1 77.968 62.714 Q 77.182 62.941 76.46 63.062 A 9.435 9.435 0 0 1 74.9 63.2 Q 72.9 63.2 71.1 62.2 Q 74 57.8 75.9 53.05 A 34.344 34.344 0 0 0 76.316 51.958 Q 77.013 50.027 77.383 48.243 A 18.954 18.954 0 0 0 77.8 44.4 A 15.237 15.237 0 0 0 77.798 44.127 Q 77.774 42.813 77.523 41.679 A 8.597 8.597 0 0 0 76.4 38.9 Q 75.35 37.25 72.781 36.838 A 11.903 11.903 0 0 0 70.9 36.7 A 10.336 10.336 0 0 0 70.023 36.737 A 8.031 8.031 0 0 0 65.6 38.45 A 10.183 10.183 0 0 0 63.874 40.204 A 11.86 11.86 0 0 0 62.25 43.1 Q 61.1 46 61.1 49.3 Q 61.1 53.2 62.65 56.95 A 17.942 17.942 0 0 0 63.445 58.628 A 14.503 14.503 0 0 0 67 63 A 40.525 40.525 0 0 1 64.353 66.007 A 29.963 29.963 0 0 1 61.3 68.75 A 19.47 19.47 0 0 1 60.799 69.126 Q 58.217 71 56.3 71 Q 54.7 71 53.7 69.65 A 3.449 3.449 0 0 1 53.467 69.289 Q 52.7 67.927 52.7 65.3 A 11.477 11.477 0 0 1 52.759 64.172 Q 52.835 63.407 53.008 62.538 A 25.492 25.492 0 0 1 53.45 60.7 A 48.638 48.638 0 0 1 53.497 60.532 A 52.685 52.685 0 0 1 55.3 55.25 A 43.267 43.267 0 0 1 56.301 52.939 A 33.287 33.287 0 0 1 57.65 50.35 A 28.267 28.267 0 0 1 58.095 49.611 Q 59.064 48.054 59.8 47.4 A 8.973 8.973 0 0 0 59.738 47.375 A 9.742 9.742 0 0 0 58.75 47.05 A 4.572 4.572 0 0 0 58.378 46.965 A 3.729 3.729 0 0 0 57.7 46.9 A 4.926 4.926 0 0 0 56.884 46.969 Q 55.919 47.13 54.966 47.675 A 8.699 8.699 0 0 0 53.55 48.7 A 15.684 15.684 0 0 0 51.485 50.923 A 21.34 21.34 0 0 0 49.85 53.4 Q 48.2 56.3 47.2 59.6 A 25.06 25.06 0 0 0 47.149 59.772 A 41.762 41.762 0 0 1 42.3 66.3 A 44.036 44.036 0 0 1 40.62 68.071 A 37.981 37.981 0 0 1 32.65 74.2 A 25.27 25.27 0 0 1 29.693 75.65 A 19.891 19.891 0 0 1 22.1 77.2 A 15.422 15.422 0 0 1 19.156 76.932 A 10.92 10.92 0 0 1 13.95 74.45 A 14.368 14.368 0 0 1 11.382 71.499 A 16.964 16.964 0 0 1 9.4 67.25 Q 8 62.8 8 57.9 A 48.295 48.295 0 0 1 8.339 52.26 A 58.981 58.981 0 0 1 10.05 43.6 Q 12.1 36.1 15.6 28.9 Q 19.1 21.7 23.45 15.85 A 63.288 63.288 0 0 1 23.995 15.128 Q 28.091 9.782 32.45 6.5 A 24.037 24.037 0 0 1 33.751 5.585 Q 37.705 3 41.4 3 Q 42.823 3 43.812 3.375 A 3.435 3.435 0 0 1 45.15 4.25 A 4.193 4.193 0 0 1 46.125 6.052 A 5.677 5.677 0 0 1 46.3 7.5 Q 46.3 9.6 45.25 12.35 Q 44.2 15.1 42.5 17.95 Q 40.8 20.8 38.95 23.35 Q 37.794 24.944 36.774 26.206 A 42.198 42.198 0 0 1 35.6 27.6 A 6.344 6.344 0 0 0 35.867 28.118 Q 36.096 28.513 36.355 28.81 A 2.835 2.835 0 0 0 37.05 29.4 A 3.996 3.996 0 0 0 37.759 29.733 A 2.848 2.848 0 0 0 38.7 29.9 A 4.196 4.196 0 0 0 40.171 29.628 Q 41.521 29.127 42.85 27.7 Q 44.003 26.463 45.046 24.861 A 29.138 29.138 0 0 0 46.6 22.15 Q 48.3 18.8 49.3 15.15 Q 49.863 13.097 50.109 11.281 A 19.997 19.997 0 0 0 50.3 8.6 A 14.68 14.68 0 0 0 50.21 6.927 Q 49.82 3.533 47.75 1.95 Q 46.147 0.724 43.93 0.269 A 14.07 14.07 0 0 0 41.1 0 A 21.221 21.221 0 0 0 35.002 0.918 A 27.378 27.378 0 0 0 29.55 3.25 A 40.875 40.875 0 0 0 24.526 6.562 A 50.917 50.917 0 0 0 18.4 12.15 A 63.02 63.02 0 0 0 16.413 14.372 A 69.948 69.948 0 0 0 8.95 25.05 Q 4.8 32.3 2.4 40.3 A 61.196 61.196 0 0 0 2.253 40.8 A 54.947 54.947 0 0 0 0 56.2 Q 0 62.3 1.95 67.9 A 23.699 23.699 0 0 0 2.074 68.248 A 19.969 19.969 0 0 0 8.25 77.05 A 14.045 14.045 0 0 0 9.229 77.781 Q 11.665 79.439 14.857 80.122 Z M 176.4 41 A 28.296 28.296 0 0 0 179.333 38.324 A 37.783 37.783 0 0 0 181.85 35.4 Q 184.5 32 186.8 28.15 A 103.637 103.637 0 0 0 189.969 22.46 A 91.068 91.068 0 0 0 190.9 20.6 A 69.821 69.821 0 0 0 192.322 17.497 Q 193.138 15.588 193.7 13.9 Q 194.7 10.9 194.7 9.4 A 3.935 3.935 0 0 0 194.695 9.198 Q 194.68 8.907 194.618 8.782 A 0.282 0.282 0 0 0 194.6 8.75 A 0.323 0.323 0 0 0 194.366 8.605 A 0.471 0.471 0 0 0 194.3 8.6 Q 193.522 8.6 191.369 11.301 A 40.555 40.555 0 0 0 191.25 11.45 A 43.425 43.425 0 0 0 189.568 13.744 Q 188.693 15.017 187.752 16.537 A 99.963 99.963 0 0 0 186.25 19.05 Q 183.5 23.8 180.8 29.55 A 83.276 83.276 0 0 0 176.841 39.575 A 75.761 75.761 0 0 0 176.4 41 Z M 135.3 33.8 Q 139.9 30.1 143.35 25.4 Q 146.8 20.7 148.7 16.35 A 36.86 36.86 0 0 0 149.531 14.291 Q 150.6 11.375 150.6 9.5 Q 150.6 9 150.55 8.8 A 0.328 0.328 0 0 0 150.513 8.708 Q 150.457 8.616 150.341 8.603 A 0.356 0.356 0 0 0 150.3 8.6 Q 149.327 8.6 146.978 11.918 A 43.057 43.057 0 0 0 146.85 12.1 Q 145.204 14.452 143.265 17.819 A 144.091 144.091 0 0 0 141.3 21.35 A 152.916 152.916 0 0 0 137.132 29.706 A 180.578 180.578 0 0 0 135.3 33.8 Z M 292.3 33.8 Q 296.9 30.1 300.35 25.4 Q 303.8 20.7 305.7 16.35 A 36.86 36.86 0 0 0 306.531 14.291 Q 307.6 11.375 307.6 9.5 Q 307.6 9 307.55 8.8 A 0.328 0.328 0 0 0 307.513 8.708 Q 307.457 8.616 307.341 8.603 A 0.356 0.356 0 0 0 307.3 8.6 Q 306.327 8.6 303.978 11.918 A 43.057 43.057 0 0 0 303.85 12.1 Q 302.204 14.452 300.265 17.819 A 144.091 144.091 0 0 0 298.3 21.35 A 152.916 152.916 0 0 0 294.132 29.706 A 180.578 180.578 0 0 0 292.3 33.8 Z M 68.8 60.4 Q 71.3 56.7 72.95 52.65 A 23.947 23.947 0 0 0 74.135 48.952 A 17.735 17.735 0 0 0 74.6 45 Q 74.6 42.455 73.945 41.104 A 3.65 3.65 0 0 0 73.75 40.75 A 3.631 3.631 0 0 0 73.206 40.068 A 2.242 2.242 0 0 0 71.6 39.4 Q 69.6 39.4 67.5 42.3 A 10.731 10.731 0 0 0 65.721 46.392 A 15.248 15.248 0 0 0 65.4 49.6 A 20.988 20.988 0 0 0 66.198 55.266 A 23.378 23.378 0 0 0 66.25 55.45 Q 67.1 58.4 68.8 60.4 Z M 105.3 60.4 Q 107.8 56.7 109.45 52.65 A 23.947 23.947 0 0 0 110.635 48.952 A 17.735 17.735 0 0 0 111.1 45 Q 111.1 42.455 110.445 41.104 A 3.65 3.65 0 0 0 110.25 40.75 A 3.631 3.631 0 0 0 109.706 40.068 A 2.242 2.242 0 0 0 108.1 39.4 Q 106.1 39.4 104 42.3 A 10.731 10.731 0 0 0 102.221 46.392 A 15.248 15.248 0 0 0 101.9 49.6 A 20.988 20.988 0 0 0 102.698 55.266 A 23.378 23.378 0 0 0 102.75 55.45 Q 103.6 58.4 105.3 60.4 Z M 225.8 60.4 Q 228.3 56.7 229.95 52.65 A 23.947 23.947 0 0 0 231.135 48.952 A 17.735 17.735 0 0 0 231.6 45 Q 231.6 42.455 230.945 41.104 A 3.65 3.65 0 0 0 230.75 40.75 A 3.631 3.631 0 0 0 230.206 40.068 A 2.242 2.242 0 0 0 228.6 39.4 Q 226.6 39.4 224.5 42.3 A 10.731 10.731 0 0 0 222.721 46.392 A 15.248 15.248 0 0 0 222.4 49.6 A 20.988 20.988 0 0 0 223.198 55.266 A 23.378 23.378 0 0 0 223.25 55.45 Q 224.1 58.4 225.8 60.4 Z M 262.3 60.4 Q 264.8 56.7 266.45 52.65 A 23.947 23.947 0 0 0 267.635 48.952 A 17.735 17.735 0 0 0 268.1 45 Q 268.1 42.455 267.445 41.104 A 3.65 3.65 0 0 0 267.25 40.75 A 3.631 3.631 0 0 0 266.706 40.068 A 2.242 2.242 0 0 0 265.1 39.4 Q 263.1 39.4 261 42.3 A 10.731 10.731 0 0 0 259.221 46.392 A 15.248 15.248 0 0 0 258.9 49.6 A 20.988 20.988 0 0 0 259.698 55.266 A 23.378 23.378 0 0 0 259.75 55.45 Q 260.6 58.4 262.3 60.4 Z M 188 65 Q 189.1 62.7 189.7 60.15 Q 190.3 57.6 190.3 54.9 Q 190.3 52.641 189.904 51.007 A 8.291 8.291 0 0 0 189.35 49.4 A 5.978 5.978 0 0 0 188.88 48.573 Q 188.072 47.4 187 47.4 Q 185.5 47.4 184.35 49.45 Q 183.2 51.5 183.2 54.6 A 14.95 14.95 0 0 0 183.588 57.912 A 19.44 19.44 0 0 0 184.3 60.3 Q 185.4 63.3 188 65 Z" vector-effect="non-scaling-stroke"/></g></svg>